<svg width="130" height="22" viewBox="0 0 130 22" fill="none" xmlns="http://www.w3.org/2000/svg">
<path d="M29.016 17V4.947H27.35V10.098H21.196V4.947H19.53V17H21.196V11.645H27.35V17H29.016ZM32.9478 12.07C33.0158 11.016 33.8318 9.979 35.1748 9.979C36.6198 9.979 37.3848 10.897 37.4188 12.07H32.9478ZM37.6568 14.195C37.3508 15.113 36.6878 15.844 35.3618 15.844C33.9848 15.844 32.9308 14.824 32.8968 13.362H39.0508C39.0678 13.26 39.0848 13.056 39.0848 12.852C39.0848 10.302 37.6738 8.568 35.1578 8.568C33.1008 8.568 31.2478 10.319 31.2478 12.886C31.2478 15.657 33.1688 17.255 35.3618 17.255C37.2658 17.255 38.5748 16.116 39.0338 14.671L37.6568 14.195ZM40.6146 14.807C40.6146 16.099 41.6856 17.255 43.3516 17.255C44.8136 17.255 45.6296 16.473 45.9866 15.895C45.9866 16.49 46.0376 16.796 46.0716 17H47.6356C47.6016 16.796 47.5336 16.371 47.5336 15.657V11.56C47.5336 9.962 46.5816 8.568 44.1336 8.568C42.3656 8.568 40.9546 9.656 40.7846 11.22L42.3146 11.577C42.4166 10.625 43.0456 9.928 44.1676 9.928C45.4086 9.928 45.9356 10.591 45.9356 11.39C45.9356 11.679 45.7996 11.934 45.3066 12.002L43.0966 12.325C41.6856 12.529 40.6146 13.345 40.6146 14.807ZM43.5726 15.912C42.7566 15.912 42.2466 15.334 42.2466 14.722C42.2466 13.991 42.7566 13.6 43.4366 13.498L45.9356 13.124V13.498C45.9356 15.283 44.8816 15.912 43.5726 15.912ZM51.6211 17V4.692H50.0231V17H51.6211ZM56.4815 6.239H55.0195V7.565C55.0195 8.279 54.6455 8.823 53.7615 8.823H53.3195V10.268H54.8835V14.756C54.8835 16.235 55.7675 17.085 57.1615 17.085C57.7055 17.085 58.1135 16.983 58.2495 16.932V15.572C58.1135 15.606 57.8245 15.64 57.6205 15.64C56.7875 15.64 56.4815 15.266 56.4815 14.518V10.268H58.2495V8.823H56.4815V6.239ZM61.9805 12.189C62.0145 10.982 62.6605 10.03 63.8845 10.03C65.3125 10.03 65.7885 10.948 65.7885 12.087V17H67.3865V11.815C67.3865 9.996 66.4175 8.585 64.4625 8.585C63.5275 8.585 62.5755 8.908 61.9805 9.775V4.692H60.3825V17H61.9805V12.189ZM79.0064 7.514V4.947H68.8914V7.514H72.5974V17H75.2834V7.514H79.0064ZM84.509 8.551C84.339 8.5 84.084 8.466 83.829 8.466C83.149 8.466 82.078 8.738 81.636 9.69V8.551H79.137V17H81.721V13.311C81.721 11.628 82.656 11.016 83.693 11.016C83.948 11.016 84.22 11.033 84.509 11.101V8.551ZM85.6329 14.671C85.6329 16.014 86.7039 17.238 88.5569 17.238C89.6789 17.238 90.4949 16.762 90.9369 16.048C90.9369 16.626 91.0049 16.932 91.0219 17H93.3509C93.3339 16.915 93.2489 16.354 93.2489 15.691V11.56C93.2489 9.826 92.2459 8.296 89.5089 8.296C87.0269 8.296 85.9049 9.894 85.8029 11.101L88.0469 11.56C88.0979 10.931 88.5909 10.319 89.4919 10.319C90.3079 10.319 90.7329 10.744 90.7329 11.237C90.7329 11.526 90.5799 11.747 90.1209 11.815L88.1319 12.121C86.7379 12.325 85.6329 13.175 85.6329 14.671ZM89.1859 15.368C88.4719 15.368 88.1829 14.943 88.1829 14.501C88.1829 13.906 88.5909 13.651 89.1349 13.566L90.7329 13.311V13.685C90.7329 14.994 89.9509 15.368 89.1859 15.368ZM99.2664 10.676C100.269 10.676 100.779 11.288 100.966 11.934L103.278 11.237C102.904 9.724 101.544 8.296 99.2154 8.296C96.7334 8.296 94.7614 10.149 94.7614 12.784C94.7614 15.402 96.7844 17.255 99.3004 17.255C101.561 17.255 102.955 15.793 103.329 14.314L101.051 13.617C100.864 14.246 100.303 14.875 99.3004 14.875C98.2294 14.875 97.3284 14.127 97.3284 12.784C97.3284 11.424 98.1954 10.676 99.2664 10.676ZM113.403 8.551H110.054L107.487 11.39V4.692H104.903V17H107.487V14.926L108.32 14.025L110.309 17H113.471L110.105 12.104L113.403 8.551ZM116.287 11.764C116.338 11.135 116.882 10.336 117.97 10.336C119.194 10.336 119.636 11.118 119.67 11.764H116.287ZM119.857 13.957C119.619 14.62 119.092 15.062 118.157 15.062C117.154 15.062 116.287 14.382 116.236 13.43H122.118C122.135 13.379 122.169 12.988 122.169 12.631C122.169 9.911 120.554 8.296 117.936 8.296C115.743 8.296 113.72 10.03 113.72 12.75C113.72 15.589 115.794 17.255 118.123 17.255C120.265 17.255 121.608 16.031 122.016 14.569L119.857 13.957ZM129.2 8.551C129.03 8.5 128.775 8.466 128.52 8.466C127.84 8.466 126.769 8.738 126.327 9.69V8.551H123.828V17H126.412V13.311C126.412 11.628 127.347 11.016 128.384 11.016C128.639 11.016 128.911 11.033 129.2 11.101V8.551Z" fill="#275784"/>
<circle cx="1.09091" cy="15.9093" r="1.09091" fill="#275784"/>
<circle cx="1.09091" cy="12.6363" r="1.09091" fill="#275784"/>
<circle cx="1.09091" cy="9.36386" r="1.09091" fill="#275784"/>
<circle cx="1.09091" cy="6.09091" r="1.09091" fill="#275784"/>
<circle cx="4.36337" cy="9.36386" r="1.09091" fill="#275784"/>
<circle cx="4.36337" cy="12.6363" r="1.09091" fill="#275784"/>
<circle cx="4.36337" cy="15.9093" r="1.09091" fill="#275784"/>
<circle cx="7.63681" cy="15.9093" r="1.09091" fill="#275784"/>
<circle cx="7.63681" cy="12.6363" r="1.09091" fill="#275784"/>
<circle cx="10.9093" cy="12.6363" r="1.09091" fill="#275784"/>
<circle cx="10.9093" cy="15.9093" r="1.09091" fill="#275784"/>
<circle cx="14.1817" cy="15.9093" r="1.09091" fill="#275784"/>
<circle cx="7.63681" cy="9.36386" r="1.09091" fill="#275784"/>
<circle cx="7.63681" cy="6.09091" r="1.09091" fill="#275784"/>
</svg>
