<svg width="19" height="19" viewBox="0 0 19 19" fill="none" xmlns="http://www.w3.org/2000/svg">
<path d="M9.49982 0.643066C14.3718 0.643066 18.3408 4.57427 18.3408 9.39987C18.3408 14.2255 14.3718 18.1567 9.49982 18.1567C4.62782 18.1567 0.658821 14.2255 0.658821 9.39987C0.658821 4.57427 4.62782 0.643066 9.49982 0.643066ZM7.88282 6.52947C7.86182 6.46707 7.84082 6.40467 7.81982 6.34227C7.77782 6.27987 7.75682 6.21747 7.71482 6.15507C7.67282 6.09267 7.63082 6.03027 7.58882 5.98867C7.52582 5.94707 7.48382 5.90547 7.42082 5.86387C7.35782 5.82227 7.29482 5.78067 7.23182 5.75987C7.16882 5.73907 7.10582 5.71827 7.04282 5.69747C6.70682 5.63507 6.34982 5.73907 6.09782 5.98867C5.88782 6.17587 5.78282 6.44627 5.78282 6.71667C5.78282 6.98707 5.90882 7.25747 6.09782 7.44467C6.16082 7.48627 6.20282 7.52787 6.26582 7.56947C6.32882 7.61107 6.39182 7.65267 6.45482 7.67347C6.51782 7.69427 6.58082 7.71507 6.64382 7.73587C6.70682 7.75667 6.79082 7.75667 6.85382 7.75667C6.93782 7.75667 7.00082 7.75667 7.06382 7.73587C7.12682 7.71507 7.18982 7.69427 7.25282 7.67347C7.31582 7.63187 7.37882 7.61107 7.44182 7.56947C7.50482 7.52787 7.56782 7.48627 7.60982 7.44467C7.65182 7.38227 7.69382 7.34067 7.73582 7.27827C7.77782 7.21587 7.81982 7.15347 7.84082 7.09107C7.86182 7.02867 7.88282 6.96627 7.88282 6.94547C7.90382 6.88307 7.90382 6.79987 7.90382 6.73747C7.90382 6.65427 7.90382 6.59187 7.88282 6.52947ZM13.1958 6.46707C13.1748 6.40467 13.1538 6.34227 13.1328 6.27987C13.0908 6.21747 13.0698 6.15507 13.0278 6.09267C12.9858 6.03027 12.9438 5.96787 12.9018 5.92627C12.8388 5.88467 12.7968 5.84307 12.7338 5.80147C12.6708 5.75987 12.6078 5.71827 12.5448 5.69747C12.4818 5.67667 12.4188 5.65587 12.3558 5.63507C12.2088 5.61427 12.0618 5.61427 11.9358 5.63507C11.8728 5.65587 11.8098 5.67667 11.7468 5.69747C11.6838 5.73907 11.6208 5.75987 11.5578 5.80147C11.4948 5.84307 11.4318 5.88467 11.3898 5.92627C11.3478 5.98867 11.3058 6.03027 11.2638 6.09267C11.2218 6.15507 11.1798 6.21747 11.1588 6.27987C11.1378 6.34227 11.1168 6.40467 11.0958 6.46707C11.0748 6.52947 11.0748 6.61267 11.0748 6.67507C11.0748 6.73747 11.0748 6.82067 11.0958 6.88307C11.1168 6.94547 11.1378 7.00787 11.1588 7.07027C11.2008 7.13267 11.2218 7.19507 11.2638 7.25747C11.3058 7.31987 11.3478 7.38227 11.3898 7.42387C11.5788 7.63187 11.8518 7.73587 12.1248 7.73587C12.1878 7.73587 12.2718 7.73587 12.3348 7.71507C12.3978 7.69427 12.4608 7.67347 12.5238 7.65267C12.5868 7.61107 12.6498 7.59027 12.7128 7.54867C12.7758 7.52787 12.8178 7.46547 12.9018 7.40307C13.1118 7.21587 13.2168 6.94547 13.2168 6.67507C13.2168 6.59187 13.2168 6.52947 13.1958 6.46707ZM4.60682 10.4191C4.60682 13.0815 6.81182 15.2655 9.49982 15.2655C12.1878 15.2655 14.3928 13.0815 14.3928 10.4191V10.0031H4.60682V10.4191Z" fill="#275784"/>
</svg>
